<svg width="600" height="124" viewBox="0 0 600 124" fill="none" xmlns="http://www.w3.org/2000/svg">
<g clip-path="url(#clip0_4_34)">
<path d="M118.386 62C118.386 93.3635 92.9611 118.789 61.5976 118.789C30.234 118.789 4.80878 93.3635 4.80878 62C4.80878 30.6364 30.234 5.21118 61.5976 5.21118C92.9611 5.21118 118.386 30.6364 118.386 62Z" fill="#86B2B2"/>
<path fill-rule="evenodd" clip-rule="evenodd" d="M123.195 62C123.195 96.0194 95.6169 123.598 61.5975 123.598C27.5782 123.598 0 96.0194 0 62C0 27.9806 27.5782 0.402466 61.5975 0.402466C95.6169 0.402466 123.195 27.9806 123.195 62ZM61.5975 118.789C92.9611 118.789 118.386 93.3636 118.386 62C118.386 30.6364 92.9611 5.21123 61.5975 5.21123C30.234 5.21123 4.80877 30.6364 4.80877 62C4.80877 93.3636 30.234 118.789 61.5975 118.789Z" fill="#2A2A2A"/>
<path fill-rule="evenodd" clip-rule="evenodd" d="M53.4037 17.2377C44.3981 18.9261 35.7192 23.5136 29.1822 30.04C26.5566 32.6616 26.1703 33.2111 26.1703 34.3245C26.1703 35.9057 27.6562 37.2794 29.0018 36.9417C29.472 36.8238 31.1218 35.4519 32.6683 33.893C38.7683 27.7437 46.0102 23.9068 54.5456 22.302C59.1802 21.4305 66.7365 21.7379 71.5146 22.9923C75.2219 23.9652 79.855 25.9709 82.9195 27.9296C85.0413 29.2858 85.6141 29.3428 86.9057 28.3268C88.0666 27.4137 88.1918 25.757 87.1762 24.7414C86.0825 23.6476 81.6125 21.1564 78.5258 19.9206C72.7814 17.6203 69.3077 16.9478 62.4951 16.8164C58.1007 16.7317 55.4466 16.8547 53.4037 17.2377ZM56.1063 27.6196C50.8419 28.4618 44.608 31.1393 40.4724 34.3337C37.9695 36.2671 34.387 39.9813 32.8599 42.2262C30.1949 46.1445 27.2655 53.6208 27.2655 56.5049C27.2655 58.5245 29.7604 59.7625 31.4062 58.5592C31.7523 58.3062 32.2824 57.0332 32.5839 55.7299C34.7481 46.3782 40.6575 39.0866 49.3079 35.0945C53.6318 33.0986 56.0833 32.5893 61.3999 32.582C65.2488 32.5766 66.6931 32.7317 69.0416 33.402C77.1688 35.7224 83.9632 41.3066 87.6548 48.7C90.3516 54.1016 91.1533 58.6099 91.1533 68.3771C91.1533 75.895 90.444 81.8581 88.7486 88.5905C88.0659 91.3011 87.5062 93.8884 87.5051 94.3404C87.5019 95.4155 88.734 96.6221 89.835 96.6221C91.897 96.6221 92.7282 94.8756 94.4386 86.9476C96.8908 75.5822 97.1051 62.0416 94.9665 53.611C91.8444 41.3033 82.3441 31.6336 70.1507 28.3527C66.8639 27.4685 59.465 27.0822 56.1063 27.6196ZM92.7286 31.6449C90.9328 32.3608 90.6944 34.3738 92.2011 36.0984C93.8505 37.9866 96.5743 42.3777 97.8798 45.2541C100.57 51.1807 101.754 56.31 101.77 62.0975C101.78 65.6989 101.865 66.2235 102.555 66.958C103.582 68.0518 105.049 68.0106 106.132 66.8573C106.95 65.9866 106.998 65.6847 106.961 61.655C106.882 53.0261 103.745 43.5499 98.4044 35.8056C95.7058 31.8921 94.439 30.9633 92.7286 31.6449ZM58.8444 38.0738C58.4428 38.1527 57.2107 38.3933 56.1063 38.6079C53.1934 39.1745 47.8619 41.8969 45.4429 44.0534C42.618 46.5713 39.9252 50.7017 38.7113 54.3776C37.7661 57.2416 37.7187 57.7389 37.6606 65.4083C37.6088 72.2728 37.4898 73.843 36.8432 76.2119C35.4998 81.1327 33.0607 85.7663 29.8827 89.4341C29.0354 90.4118 28.3608 91.5673 28.3608 92.0404C28.3608 94.3221 31.1893 95.3315 32.9497 93.6777C35.7579 91.0394 39.0329 85.6133 40.7451 80.7622C42.5592 75.6234 43.0867 71.7701 42.8231 65.5909C42.5599 59.4324 43.0148 56.5604 44.7755 53.2623C47.7392 47.711 52.6074 44.2925 58.9517 43.3083C65.4186 42.305 72.5368 45.3362 76.3401 50.7138C79.2925 54.8884 80.2398 55.4287 82.0433 53.9684C83.2294 53.0079 83.0567 51.4224 81.5015 48.991C78.8365 44.8248 74.7685 41.4245 70.3369 39.6593C66.968 38.3177 61.4627 37.558 58.8444 38.0738ZM20.8118 42.404C19.8129 43.1035 18.0055 48.0922 17.0475 52.7932C15.6098 59.8479 16.1388 70.9257 18.0025 72.7894C19.0448 73.8316 20.3087 73.8532 21.3886 72.847C22.1005 72.1841 22.1903 71.8278 22.0081 70.3828C21.8913 69.4541 21.6931 66.3119 21.5675 63.4004C21.2907 56.9748 21.6806 54.1027 23.5955 48.4624C25.0963 44.0413 25.1061 43.0242 23.6564 42.2485C22.6561 41.7129 21.7256 41.764 20.8118 42.404ZM56.5513 49.5766C53.7702 50.6451 50.6317 53.6796 49.3451 56.5436C48.3222 58.8209 48.3146 58.8925 48.2645 66.8686C48.2211 73.8149 48.1057 75.3357 47.411 78.1238C45.8883 84.2329 42.8983 90.3811 39.2666 94.873C36.879 97.8253 36.6183 98.3989 37.0933 99.6489C37.6135 101.016 38.9669 101.6 40.3195 101.04C42.3836 100.185 47.515 92.6201 49.8727 86.9567C52.7009 80.1627 53.6187 74.9046 53.5234 66.0348C53.4522 59.3875 53.5833 58.7443 55.4397 56.6298C59.9001 51.5498 68.3673 54.0556 69.5008 60.7909C69.9429 63.4172 69.8071 74.1985 69.2909 77.4557C67.9339 86.0149 64.8326 94.6868 60.6865 101.515C58.9469 104.38 58.8206 105.023 59.7629 106.221C60.3371 106.951 60.8661 107.209 61.789 107.209C63.4173 107.209 64.4639 105.793 67.7806 99.1049C73.0592 88.4601 75.449 77.3166 74.9682 65.5909C74.7214 59.5701 74.1555 57.1978 72.2999 54.4017C70.9348 52.3453 68.1409 50.2268 65.6435 49.355C63.3417 48.5514 58.9393 48.6588 56.5513 49.5766ZM59.7048 60.167C58.9736 60.8982 58.9367 61.1972 59.1393 64.7731C59.3755 68.9437 58.9495 75.1171 58.1682 78.8437C57.7674 80.7564 57.7597 81.4179 58.1288 82.2955C58.9531 84.2563 61.8467 84.1066 62.6298 82.063C63.8002 79.008 64.6333 70.4741 64.2891 65.0666C64.0667 61.5696 63.9302 60.969 63.1906 60.2294C62.1337 59.1725 60.7245 59.1473 59.7048 60.167ZM81.3489 61.8876C80.7535 62.483 80.6462 63.4004 80.4622 69.4628C80.1168 80.8626 77.9694 90.3899 73.6696 99.6018C72.3794 102.366 72.2969 103.056 73.1165 104.227C73.59 104.903 73.9788 105.037 75.2062 104.947C76.5387 104.849 76.8103 104.666 77.5379 103.376C78.7814 101.171 81.453 94.2998 82.5062 90.5984C84.6755 82.976 85.6772 75.8253 85.6772 67.9616C85.6772 63.1828 85.6447 62.9696 84.781 62.1062C83.7157 61.0406 82.2868 60.9497 81.3489 61.8876ZM28.0409 66.5948C27.4404 67.0961 27.2002 67.9025 26.9271 70.3368C26.4525 74.5647 25.0871 78.122 22.731 81.2686C22.2133 81.9604 21.7894 82.8866 21.7894 83.3272C21.7894 84.4118 22.8463 85.5863 24.0865 85.8801C24.9557 86.0861 25.3171 85.8991 26.5445 84.609C30.4701 80.4825 33.6273 69.0861 31.4986 66.7266C30.6523 65.7891 29.0789 65.7289 28.0409 66.5948ZM55.3495 90.1767C54.8402 90.4301 53.8403 91.7772 52.997 93.3459C52.1905 94.8467 50.712 97.2697 49.7113 98.7304C46.9722 102.73 46.8532 103.013 47.4168 104.189C48.0192 105.446 49.5419 106.029 50.7657 105.472C51.8025 104.999 56.6879 97.8356 58.1449 94.6514C59.3127 92.0988 59.1017 90.9054 57.3574 90.1939C56.4765 89.8346 56.0457 89.831 55.3495 90.1767Z" fill="#2A2A2A"/>
<path d="M153.527 100.041V22.8695H161.157V57.4221C164.972 51.4272 171.948 47.7212 180.014 47.7212C194.184 47.7212 205.084 59.2751 205.084 74.5349C205.084 89.5767 194.293 101.131 180.014 101.131C171.839 101.131 164.972 97.4246 161.157 91.4297V100.041H153.527ZM178.706 93.8277C189.497 93.8277 197.127 85.7618 197.127 74.4259C197.127 62.981 189.497 54.9151 178.815 54.9151C168.133 54.9151 160.721 62.981 160.721 74.4259C160.721 85.8708 168.024 93.8277 178.706 93.8277Z" fill="#2A2A2A"/>
<path d="M221.102 37.6933C218.05 37.6933 215.87 35.2954 215.87 32.3524C215.87 29.3004 218.05 27.0115 221.102 27.0115C224.263 27.0115 226.443 29.3004 226.443 32.3524C226.443 35.2954 224.263 37.6933 221.102 37.6933ZM217.287 100.041V48.8112H225.026V100.041H217.287Z" fill="#2A2A2A"/>
<path d="M263.709 101.131C248.776 101.131 237.113 89.2497 237.113 74.2079C237.113 59.3841 248.776 47.7212 263.709 47.7212C278.642 47.7212 290.305 59.2751 290.305 74.2079C290.305 89.4677 278.642 101.131 263.709 101.131ZM263.709 93.7187C274.5 93.7187 282.457 85.5438 282.457 74.2079C282.457 63.199 274.5 55.0241 263.709 55.0241C252.918 55.0241 245.07 63.199 245.07 74.2079C245.07 85.5438 252.918 93.7187 263.709 93.7187Z" fill="#2A2A2A"/>
<path d="M302.443 100.041V48.8112H310.073V55.5691C313.561 50.6642 319.447 47.7212 326.204 47.7212C333.834 47.7212 340.156 51.5362 343.317 57.8581C346.805 51.5362 353.454 47.7212 361.193 47.7212C372.093 47.7212 380.595 55.3511 380.595 67.232V100.041H372.965V68.649C372.965 60.1471 367.297 54.8061 359.449 54.8061C351.601 54.8061 345.388 60.1471 345.388 68.54V100.041H337.649V68.649C337.649 60.1471 331.981 54.8061 324.242 54.8061C316.395 54.8061 310.073 60.1471 310.073 68.54V100.041H302.443Z" fill="#2A2A2A"/>
<path d="M418.595 101.131C403.118 101.131 391.564 89.6857 391.564 74.3169C391.564 59.2751 403.009 47.7212 417.941 47.7212C431.893 47.7212 441.921 58.0761 441.921 72.5729C441.921 73.6629 441.703 75.1889 441.376 77.2599H399.412C400.611 87.3968 408.023 93.9367 418.704 93.9367C424.917 93.9367 430.258 91.6477 433.964 87.1788L438.869 92.1927C434.073 97.8606 426.661 101.131 418.595 101.131ZM417.723 54.8061C407.696 54.8061 400.72 61.1281 399.412 70.72H434.4C433.637 61.0191 427.533 54.8061 417.723 54.8061Z" fill="#2A2A2A"/>
<path d="M459.741 100.041V55.6781H446.77V48.8112H459.741V27.2295H467.371V48.8112H480.232V55.6781H467.371V100.041H459.741Z" fill="#2A2A2A"/>
<path d="M490.742 100.041V48.8112H498.372V55.5691C501.424 50.5552 506.438 47.7212 512.978 47.7212C517.992 47.7212 522.243 49.4652 525.84 53.3892L520.826 58.7301C518.319 56.1141 515.485 54.9151 511.67 54.9151C503.822 54.9151 498.372 60.1471 498.372 70.175V100.041H490.742Z" fill="#2A2A2A"/>
<path d="M537.774 37.6933C534.722 37.6933 532.542 35.2954 532.542 32.3524C532.542 29.3004 534.722 27.0115 537.774 27.0115C540.935 27.0115 543.115 29.3004 543.115 32.3524C543.115 35.2954 540.935 37.6933 537.774 37.6933ZM533.959 100.041V48.8112H541.698V100.041H533.959Z" fill="#2A2A2A"/>
<path d="M580.489 101.131C565.338 101.131 553.784 89.3587 553.784 74.3169C553.784 59.2751 565.338 47.7212 580.489 47.7212C588.119 47.7212 595.095 50.7732 599.782 56.0051L594.768 61.1281C591.28 57.2041 586.266 55.0241 580.489 55.0241C569.589 55.0241 561.741 63.199 561.741 74.3169C561.741 85.5438 569.589 93.7187 580.489 93.7187C586.266 93.7187 591.389 91.5387 594.877 87.6148L600 92.7377C595.204 98.0786 588.119 101.131 580.489 101.131Z" fill="#2A2A2A"/>
</g>
<defs>
<clipPath id="clip0_4_34">
<rect width="600" height="124" fill="white"/>
</clipPath>
</defs>
</svg>
