<?xml version="1.0" encoding="utf-8"?>
<!-- Generator: Adobe Illustrator 27.5.0, SVG Export Plug-In . SVG Version: 6.00 Build 0)  -->
<svg version="1.1" id="Layer_1" xmlns="http://www.w3.org/2000/svg" xmlns:xlink="http://www.w3.org/1999/xlink" x="0px" y="0px"
	 viewBox="0 0 600 150" style="enable-background:new 0 0 600 150;" xml:space="preserve">
<style type="text/css">
	.st0{fill:#010101;}
	.st1{fill:#40518A;}
</style>
<g>
	<path class="st0" d="M223.5,54.08l-15.88,17.26L220,83.72l27.23-29.64H223.5z M201.43,78.11l-0.02,0.02l1.51,1.48L201.43,78.11z"/>
	<path class="st0" d="M284.71,33.23c0,6.69-4.72,12.32-12.32,12.32s-12.19-5.63-12.19-12.32c0-6.82,4.59-12.32,12.19-12.32
		S284.71,26.42,284.71,33.23z M282.74,52.24v75h-20.45v-75c2.62,1.84,5.63,3.01,10.23,3.01C277.11,55.27,280.26,54.08,282.74,52.24z
		"/>
	<path class="st0" d="M372.05,53.96l-26.76,73.29h-24.64l-26.88-73.29h21.64l17.7,51.8l17.7-51.8
		C350.8,53.96,372.05,53.96,372.05,53.96z"/>
	<path class="st0" d="M455.06,90.67c0,21.89-14.03,38.42-38.55,38.42c-24.64,0-38.68-16.51-38.68-38.42
		c0-21.89,14.03-38.42,38.68-38.42C441.02,52.24,455.06,68.78,455.06,90.67z M399.19,90.67c0,12.07,6.69,19.79,17.32,19.79
		c10.63,0,17.17-7.73,17.17-19.79s-6.56-19.79-17.17-19.79C405.88,70.87,399.19,78.6,399.19,90.67z"/>
	<path class="st0" d="M478.28,122.27c0,3.41-2.75,6.29-6.16,6.29c-3.41,0-6.16-2.88-6.16-6.29c0-3.41,2.75-6.16,6.16-6.16
		C475.51,116.11,478.28,118.86,478.28,122.27z"/>
	<path class="st0" d="M550.91,85.03v42.21h-5.25v-16.39c-4.47,9.84-15.35,17.7-29.11,17.7s-22.55-7.73-22.55-18.63
		c0-10.75,6.82-18.23,25.44-21.11l26.23-4.06c-0.13-13.63-8.13-22.16-21.64-22.16c-13.25,0-19.67,7.09-21.51,16.13h-5.5
		c1.18-11.79,10.63-20.98,26.76-20.98C541.47,57.77,550.91,68.25,550.91,85.03z M545.66,92.11v-2.22l-24.92,3.94
		c-16.13,2.62-21.11,8.13-21.11,16.13s6.69,13.76,16.91,13.76C531.63,123.71,545.66,111.39,545.66,92.11z"/>
	<path class="st0" d="M584.74,45.17c0,2.75-2.22,4.98-4.98,4.98s-4.98-2.22-4.98-4.98c0-2.75,2.22-4.85,4.98-4.85
		S584.74,42.42,584.74,45.17z M582.39,58.68v68.57h-5.25V58.68c0.78,0.26,1.57,0.4,2.62,0.4C580.82,59.08,581.6,58.93,582.39,58.68z
		"/>
	<polygon class="st0" points="248.29,127.12 224.43,127.12 198.2,98.52 198.2,127.12 177.75,127.12 177.75,22.88 198.2,22.88 
		198.2,74.97 201.41,78.13 202.92,79.6 227.82,104.5 	"/>
</g>
<g>
	<path class="st1" d="M139.25,7.09h-87.7v67.76l2.65,2.59l1.39,1.39c0.04,0.04,0.08,0.08,0.1,0.12l23.99,23.97l19.47,21.5H76.47
		L51.55,97.27v27.15H32.12V7.09h-8.33c-5.62,0-10.17,4.57-10.17,10.19v115.46c0,5.62,4.55,10.17,10.17,10.17h115.47
		c5.62,0,10.19-4.55,10.19-10.17V17.28C149.45,11.66,144.87,7.09,139.25,7.09z M72.27,83.19L60.52,71.44L75.6,55.03h22.54
		L72.27,83.19z M119.63,124.42c-6.25,0-11.32-5.07-11.32-11.32s5.07-11.32,11.32-11.32s11.32,5.07,11.32,11.32
		S125.88,124.42,119.63,124.42z"/>
</g>
</svg>
