<svg width="600" height="434" viewBox="0 0 600 434" fill="none" xmlns="http://www.w3.org/2000/svg">
<g clip-path="url(#clip0_4_34)">
<g clip-path="url(#clip1_4_34)">
<path d="M127.955 251.393C135.893 252.658 143.964 253.257 151.968 254.145C149.329 250.017 152.212 246.798 154.119 243.802C157.134 239.052 158.398 233.925 158.486 228.487C158.775 212.084 143.831 196.369 127.845 195.681C105.872 194.726 93.9877 209.353 92.5908 226.644C91.3492 242.026 101.371 255.632 114.076 256.942C117.268 251.482 121.969 250.461 127.933 251.415L127.955 251.393Z" fill="#F5A1AB"/>
<path d="M21.8617 407.343C27.3604 374.537 36.2071 335.005 43.5017 302.51C53.7453 256.986 65.6074 211.995 86.3605 169.911C95.6284 151.111 106.958 133.665 122.545 119.26C127.445 114.732 129.751 115.753 131.037 121.879C131.858 125.852 133.011 129.758 133.809 133.731C134.917 139.236 138.443 141.9 143.675 140.856C149.573 139.702 151.214 135.285 149.95 129.67C149.13 125.963 148.176 122.3 147.511 118.571C144.607 102.746 144.651 102.812 160.26 98.0845C164.185 96.8859 168.153 96.3088 172.211 95.9537C188.663 94.4887 204.604 96.8415 220.214 102.013C226.045 103.944 231.544 103.634 233.206 96.7306C234.714 90.56 230.768 87.3416 224.936 85.9655C217.597 84.212 210.391 81.837 202.986 80.4164C196.423 79.1513 195.159 75.9994 197.332 70.0953C201.367 59.086 206.799 48.8758 213.318 39.1317C217.73 32.5395 218.262 25.1926 214.116 18.3784C209.881 11.4088 203.341 7.92402 194.96 8.56771C184.783 9.34457 177.178 14.5828 171.302 22.5512C160.726 36.9343 153.808 52.9377 150.194 70.4504C149.662 73.0473 150.371 77.8861 146.314 77.1092C142.988 76.4655 144.363 71.9597 144.695 69.2296C146.247 55.7122 149.44 42.6387 154.761 30.0313C160.814 15.6483 152.079 1.62034 136.514 0.133199C124.053 -1.04319 113.1 7.39132 108.577 21.5302C99.4642 50.0744 96.0497 79.1735 100.329 108.961C101.038 113.866 100.085 117.817 96.9366 121.723C87.3804 133.554 79.3541 146.405 72.5472 160.034C47.0715 210.863 33.7682 265.532 22.5491 320.778C16.6513 349.766 -7.16158 434.022 2.17289 434C11.5074 433.978 15.6092 435.998 20.7753 413.624C21.6844 409.629 21.4848 409.873 21.9061 407.365L21.8617 407.343ZM166.335 74.0684C169.75 60.6619 174.051 47.6772 181.989 36.1796C183.519 33.96 185.049 31.696 186.978 29.8316C190.082 26.8129 194.184 23.2171 198.13 26.4134C202.409 29.8759 197.354 33.1388 195.447 35.8911C187.709 47.1445 182.809 59.6187 179.395 72.67C178.064 77.7085 175.515 79.3288 171.169 78.7073C167.023 79.3954 165.182 78.6407 166.335 74.0684ZM115.317 81.9258C115.65 63.9469 118.111 46.2789 123.632 29.1213C124.297 27.057 124.962 24.9706 126.004 23.0839C128.332 18.8667 131.348 14.7604 136.824 17.3352C142.367 19.9543 138.953 24.3713 137.578 27.8783C130.017 47.1001 127.179 67.0766 127.423 87.5858C127.445 90.3825 127.734 93.157 125.25 94.9993C122.922 96.7306 120.971 100.127 117.867 99.3275C114.031 98.3509 115.672 94.3556 115.406 91.6477C115.096 88.4292 115.339 85.1442 115.339 81.9036L115.317 81.9258Z" fill="#583A78"/>
<path d="M177 282.245C177.111 275.653 178.663 273.367 185.758 273.767C208.795 275.076 231.854 274.921 254.07 267.374C265.511 263.49 275.134 257.075 278.482 244.468C281.054 234.79 283.049 224.98 285.4 215.258C286.664 209.953 284.624 206.468 280.012 203.871C273.648 200.275 267.485 196.347 261.232 192.551C247.131 183.983 233.029 175.393 218.905 166.826C213.983 163.829 208.662 161.521 204.627 167.558C200.17 174.261 205.159 177.946 210.192 181.187C212.01 182.363 213.872 183.451 215.735 184.583C231.034 193.816 246.332 203.05 261.609 212.283C264.114 213.793 266.952 214.925 267.241 218.565C268.748 238.009 258.061 252.547 238.55 255.499C209.682 259.872 180.769 257.697 151.946 254.079C143.941 253.191 135.893 252.614 127.933 251.326C121.969 250.372 117.246 251.415 114.076 256.853C114.674 263.845 118 267.307 125.494 267.707C134.385 268.173 143.165 270.326 152.056 271.014C158.996 271.547 160.748 274.41 160.571 281.291C159.639 318.181 159.817 287.151 161.081 324.018C161.258 329.412 161.48 334.784 161.679 340.177H178.685C177.222 298.227 176.313 324.196 176.978 282.179L177 282.245Z" fill="#583A78"/>
<path d="M170.393 108.716C169.661 114.31 173.009 117.506 178.242 118.083C201.877 120.725 224.515 125.852 243.339 141.855C246.421 144.474 250.412 144.23 253.538 140.923C256.576 137.727 256.842 134.109 254.558 130.557C253.272 128.582 251.388 126.895 249.503 125.408C229.216 109.294 205.07 104.211 180.725 101.325C174.761 100.948 171.102 103.301 170.415 108.716H170.393Z" fill="#583A78"/>
<path d="M217.11 158.68C219.726 163.208 224.559 163.252 228.506 161.01C232.896 158.502 233.495 154.063 231.056 149.668C219.282 128.293 200.835 114.043 181.146 102.457C175.825 100.704 172.011 101.325 169.772 105.653C167.222 110.536 168.597 114.443 173.32 117.373C190.725 128.16 206.6 140.523 217.11 158.702V158.68Z" fill="#583A78"/>
<path d="M166.779 172.774C158.464 172.752 151.946 179.122 151.746 187.446C151.547 195.947 157.622 202.451 166.025 202.672C174.65 202.894 181.213 196.924 181.479 188.6C181.767 179.811 175.249 172.797 166.779 172.774Z" fill="#583A78"/>
<path d="M79.221 422.613V351.963C79.221 348.7 79.9527 346.237 81.3939 344.572C82.8351 342.907 84.8084 342.064 87.2695 342.064C89.7306 342.064 91.7261 342.885 93.2338 344.55C94.7415 346.192 95.4954 348.678 95.4954 351.985V422.636C95.4954 425.943 94.7193 428.407 93.2116 430.071C91.7039 431.736 89.7084 432.557 87.2917 432.557C84.8749 432.557 82.9681 431.692 81.4826 429.983C79.997 428.273 79.2432 425.832 79.2432 422.636L79.221 422.613Z" fill="#F5A1AB"/>
<path d="M153.431 423.324C149.507 426.387 145.693 428.695 142.013 430.227C138.332 431.758 134.208 432.535 129.64 432.535C125.472 432.535 121.814 431.714 118.643 430.049C115.472 428.407 113.056 426.165 111.348 423.346C109.641 420.527 108.776 417.464 108.776 414.157C108.776 409.695 110.196 405.9 113.011 402.77C115.827 399.618 119.707 397.51 124.63 396.444C125.672 396.2 128.221 395.667 132.323 394.824C136.425 393.98 139.928 393.226 142.855 392.538C145.782 391.85 148.952 391.006 152.367 390.007C152.167 385.701 151.303 382.549 149.773 380.552C148.243 378.554 145.072 377.533 140.261 377.533C136.137 377.533 133.011 378.11 130.926 379.264C128.842 380.419 127.046 382.15 125.561 384.458C124.075 386.767 123.011 388.276 122.412 389.031C121.792 389.763 120.483 390.141 118.444 390.141C116.625 390.141 115.029 389.563 113.699 388.387C112.368 387.211 111.703 385.724 111.703 383.881C111.703 381.018 112.723 378.243 114.741 375.536C116.758 372.828 119.929 370.608 124.208 368.854C128.488 367.101 133.853 366.235 140.239 366.235C147.4 366.235 153.01 367.079 157.112 368.766C161.214 370.453 164.096 373.138 165.781 376.778C167.466 380.441 168.309 385.302 168.309 391.339C168.309 395.157 168.309 398.397 168.286 401.061C168.286 403.725 168.242 406.699 168.198 409.962C168.198 413.025 168.708 416.221 169.728 419.528C170.748 422.858 171.258 424.988 171.258 425.943C171.258 427.608 170.482 429.139 168.907 430.515C167.333 431.891 165.559 432.579 163.564 432.579C161.901 432.579 160.238 431.803 158.619 430.227C156.979 428.651 155.271 426.365 153.431 423.39V423.324ZM152.367 399.751C149.994 400.617 146.513 401.549 141.968 402.526C137.423 403.503 134.274 404.213 132.523 404.679C130.771 405.145 129.108 406.033 127.512 407.365C125.916 408.696 125.117 410.561 125.117 412.936C125.117 415.311 126.049 417.508 127.911 419.24C129.773 420.971 132.212 421.837 135.25 421.837C138.465 421.837 141.436 421.126 144.163 419.728C146.89 418.33 148.886 416.487 150.15 414.268C151.613 411.804 152.345 407.742 152.345 402.104V399.774L152.367 399.751Z" fill="#F5A1AB"/>
<path d="M199.616 375.291V377.267C202.476 373.494 205.602 370.719 208.994 368.943C212.387 367.168 216.289 366.28 220.701 366.28C225.114 366.28 228.839 367.212 232.209 369.076C235.579 370.941 238.106 373.582 239.769 377C240.834 378.998 241.543 381.129 241.854 383.437C242.164 385.746 242.319 388.698 242.319 392.271V422.591C242.319 425.854 241.565 428.318 240.08 429.983C238.594 431.647 236.643 432.491 234.271 432.491C231.898 432.491 229.881 431.625 228.373 429.916C226.865 428.207 226.111 425.765 226.111 422.569V395.423C226.111 390.052 225.358 385.946 223.872 383.104C222.386 380.263 219.415 378.843 214.959 378.843C212.054 378.843 209.416 379.708 207.021 381.44C204.627 383.171 202.897 385.546 201.766 388.565C200.968 390.984 200.569 395.534 200.569 402.171V422.569C200.569 425.876 199.793 428.34 198.285 430.005C196.755 431.647 194.782 432.491 192.365 432.491C189.949 432.491 188.086 431.625 186.578 429.916C185.071 428.207 184.317 425.765 184.317 422.569V375.491C184.317 372.384 184.982 370.075 186.335 368.544C187.687 367.012 189.527 366.258 191.878 366.258C193.319 366.258 194.605 366.591 195.758 367.279C196.911 367.967 197.842 368.965 198.529 370.319C199.217 371.673 199.571 373.316 199.571 375.269L199.616 375.291Z" fill="#F5A1AB"/>
<path d="M299.701 423.324C295.776 426.387 291.963 428.695 288.282 430.227C284.601 431.758 280.477 432.535 275.91 432.535C271.742 432.535 268.083 431.714 264.913 430.049C261.742 428.407 259.325 426.165 257.618 423.346C255.911 420.527 255.046 417.464 255.046 414.157C255.046 409.695 256.465 405.9 259.281 402.77C262.097 399.618 265.977 397.51 270.899 396.444C271.941 396.2 274.491 395.667 278.593 394.824C282.695 393.98 286.198 393.226 289.125 392.538C292.051 391.85 295.222 391.006 298.636 390.007C298.437 385.701 297.572 382.549 296.042 380.552C294.512 378.554 291.342 377.533 286.53 377.533C282.406 377.533 279.28 378.11 277.196 379.264C275.112 380.419 273.316 382.15 271.83 384.458C270.345 386.767 269.281 388.276 268.682 389.031C268.061 389.763 266.753 390.141 264.713 390.141C262.895 390.141 261.299 389.563 259.968 388.387C258.638 387.211 257.973 385.724 257.973 383.881C257.973 381.018 258.993 378.243 261.01 375.536C263.028 372.828 266.199 370.608 270.478 368.854C274.757 367.101 280.123 366.235 286.508 366.235C293.67 366.235 299.279 367.079 303.381 368.766C307.483 370.453 310.366 373.138 312.051 376.778C313.736 380.441 314.578 385.302 314.578 391.339C314.578 395.157 314.578 398.397 314.556 401.061C314.556 403.725 314.512 406.699 314.467 409.962C314.467 413.025 314.977 416.221 315.997 419.528C317.017 422.858 317.527 424.988 317.527 425.943C317.527 427.608 316.751 429.139 315.177 430.515C313.603 431.891 311.829 432.579 309.833 432.579C308.17 432.579 306.508 431.803 304.889 430.227C303.248 428.651 301.541 426.365 299.701 423.39V423.324ZM298.636 399.751C296.264 400.617 292.783 401.549 288.238 402.526C283.692 403.503 280.544 404.213 278.792 404.679C277.041 405.145 275.378 406.033 273.781 407.365C272.185 408.696 271.387 410.561 271.387 412.936C271.387 415.311 272.318 417.508 274.181 419.24C276.043 420.971 278.482 421.837 281.52 421.837C284.735 421.837 287.706 421.126 290.433 419.728C293.16 418.33 295.155 416.487 296.419 414.268C297.883 411.804 298.614 407.742 298.614 402.104V399.774L298.636 399.751Z" fill="#F5A1AB"/>
<path d="M389.476 412.359C389.476 414.379 388.877 416.554 387.658 418.862C386.438 421.171 384.598 423.368 382.114 425.454C379.631 427.541 376.505 429.228 372.736 430.493C368.966 431.758 364.709 432.402 359.987 432.402C349.943 432.402 342.094 429.472 336.44 423.59C330.808 417.73 327.97 409.851 327.97 399.996C327.97 393.315 329.256 387.41 331.85 382.283C334.422 377.156 338.169 373.183 343.047 370.386C347.925 367.589 353.779 366.169 360.563 366.169C364.776 366.169 368.634 366.79 372.159 368.011C375.685 369.254 378.656 370.83 381.095 372.783C383.534 374.736 385.396 376.801 386.704 379.02C387.99 381.218 388.633 383.282 388.633 385.191C388.633 387.1 387.901 388.787 386.46 390.14C385.019 391.494 383.245 392.16 381.183 392.16C379.831 392.16 378.7 391.805 377.813 391.117C376.926 390.429 375.906 389.297 374.798 387.743C372.802 384.725 370.74 382.461 368.567 380.951C366.394 379.442 363.645 378.687 360.319 378.687C355.508 378.687 351.628 380.574 348.701 384.325C345.774 388.076 344.289 393.226 344.289 399.751C344.289 402.814 344.666 405.633 345.42 408.186C346.173 410.761 347.26 412.936 348.701 414.756C350.142 416.576 351.872 417.93 353.889 418.862C355.907 419.794 358.146 420.261 360.563 420.261C363.822 420.261 366.616 419.506 368.944 417.997C371.272 416.487 373.334 414.179 375.108 411.071C376.106 409.251 377.17 407.809 378.323 406.765C379.476 405.722 380.895 405.212 382.558 405.212C384.553 405.212 386.194 405.966 387.502 407.476C388.81 408.985 389.476 410.605 389.476 412.314V412.359Z" fill="#17A197"/>
<path d="M444.795 423.324C440.871 426.387 437.057 428.695 433.376 430.227C429.696 431.758 425.572 432.535 421.004 432.535C416.836 432.535 413.178 431.714 410.007 430.049C406.836 428.384 404.42 426.165 402.712 423.346C401.005 420.527 400.14 417.464 400.14 414.157C400.14 409.695 401.559 405.9 404.375 402.77C407.191 399.618 411.071 397.51 415.994 396.444C417.036 396.2 419.585 395.667 423.687 394.824C427.789 393.98 431.292 393.226 434.197 392.538C437.124 391.85 440.294 391.006 443.709 390.007C443.509 385.701 442.644 382.549 441.115 380.552C439.585 378.554 436.414 377.533 431.603 377.533C427.479 377.533 424.352 378.11 422.268 379.264C420.184 380.419 418.388 382.15 416.903 384.458C415.417 386.767 414.353 388.276 413.732 389.031C413.111 389.763 411.803 390.141 409.763 390.141C407.945 390.141 406.349 389.563 405.018 388.387C403.688 387.211 403.023 385.724 403.023 383.881C403.023 381.018 404.043 378.243 406.06 375.536C408.078 372.828 411.249 370.608 415.55 368.854C419.851 367.101 425.173 366.235 431.581 366.235C438.742 366.235 444.352 367.079 448.454 368.766C452.555 370.453 455.438 373.138 457.123 376.778C458.808 380.441 459.65 385.302 459.65 391.339C459.65 395.157 459.65 398.397 459.628 401.061C459.606 403.725 459.584 406.699 459.54 409.962C459.54 413.025 460.05 416.221 461.069 419.528C462.089 422.858 462.577 424.988 462.577 425.943C462.577 427.608 461.801 429.139 460.227 430.515C458.653 431.891 456.879 432.579 454.883 432.579C453.221 432.579 451.558 431.803 449.939 430.227C448.32 428.651 446.591 426.365 444.751 423.39L444.795 423.324ZM443.731 399.751C441.336 400.617 437.877 401.549 433.332 402.526C428.787 403.503 425.638 404.213 423.887 404.679C422.135 405.145 420.472 406.033 418.876 407.365C417.279 408.696 416.481 410.561 416.481 412.936C416.481 415.311 417.413 417.508 419.275 419.24C421.137 420.971 423.576 421.837 426.614 421.837C429.829 421.837 432.8 421.126 435.527 419.728C438.254 418.307 440.25 416.487 441.514 414.268C442.977 411.804 443.709 407.742 443.709 402.104V399.774L443.731 399.751Z" fill="#17A197"/>
<path d="M528.584 411.205C528.584 415.71 527.497 419.55 525.302 422.747C523.107 425.943 519.892 428.384 515.613 430.027C511.334 431.669 506.145 432.513 500.026 432.513C493.906 432.513 489.184 431.625 485.015 429.827C480.847 428.029 477.765 425.81 475.77 423.124C473.774 420.438 472.799 417.752 472.799 415.045C472.799 413.247 473.442 411.715 474.705 410.45C475.969 409.185 477.588 408.541 479.539 408.541C481.246 408.541 482.554 408.963 483.463 409.806C484.372 410.65 485.259 411.826 486.08 413.335C487.743 416.243 489.738 418.418 492.066 419.839C494.394 421.282 497.565 421.992 501.578 421.992C504.837 421.992 507.498 421.259 509.582 419.817C511.666 418.374 512.708 416.709 512.708 414.845C512.708 411.981 511.622 409.895 509.449 408.585C507.276 407.276 503.729 406.011 498.74 404.834C493.13 403.436 488.585 401.971 485.06 400.439C481.534 398.908 478.741 396.888 476.634 394.38C474.528 391.872 473.464 388.787 473.464 385.124C473.464 381.861 474.439 378.776 476.39 375.868C478.342 372.961 481.202 370.652 484.993 368.921C488.785 367.19 493.374 366.324 498.74 366.324C502.953 366.324 506.744 366.768 510.092 367.634C513.462 368.522 516.256 369.676 518.495 371.163C520.735 372.628 522.442 374.27 523.617 376.046C524.792 377.844 525.369 379.575 525.369 381.284C525.369 383.149 524.748 384.68 523.484 385.879C522.242 387.077 520.446 387.677 518.141 387.677C516.478 387.677 515.059 387.188 513.883 386.256C512.708 385.302 511.378 383.859 509.87 381.95C508.629 380.352 507.187 379.087 505.525 378.132C503.862 377.178 501.6 376.712 498.718 376.712C495.835 376.712 493.33 377.333 491.379 378.599C489.428 379.864 488.452 381.417 488.452 383.282C488.452 384.991 489.162 386.389 490.603 387.499C492.044 388.609 493.951 389.497 496.39 390.207C498.806 390.917 502.154 391.805 506.411 392.826C511.445 394.069 515.591 395.534 518.784 397.243C521.976 398.952 524.415 400.972 526.056 403.303C527.697 405.633 528.539 408.275 528.539 411.271L528.584 411.205Z" fill="#17A197"/>
<path d="M558.272 351.963V376.135C560.334 373.738 562.352 371.851 564.325 370.475C566.298 369.099 568.471 368.033 570.844 367.345C573.238 366.657 575.788 366.302 578.537 366.302C582.661 366.302 586.342 367.168 589.535 368.921C592.728 370.675 595.255 373.227 597.073 376.557C598.226 378.51 599.002 380.685 599.401 383.082C599.8 385.479 600 388.254 600 391.406V422.613C600 425.876 599.246 428.34 597.761 430.005C596.275 431.669 594.302 432.513 591.841 432.513C586.475 432.513 583.792 429.206 583.792 422.613V395.112C583.792 389.896 583.016 385.901 581.464 383.082C579.912 380.285 576.963 378.865 572.64 378.865C569.735 378.865 567.119 379.686 564.813 381.351C562.485 382.993 560.755 385.257 559.602 388.121C558.738 390.54 558.294 394.868 558.294 401.061V422.591C558.294 425.81 557.563 428.273 556.121 429.96C554.68 431.647 552.662 432.491 550.068 432.491C544.703 432.491 542.02 429.183 542.02 422.591V351.941C542.02 348.634 542.729 346.17 544.126 344.505C545.545 342.863 547.519 342.019 550.046 342.019C552.574 342.019 554.636 342.863 556.099 344.528C557.563 346.192 558.272 348.656 558.272 351.919V351.963Z" fill="#17A197"/>
</g>
</g>
<defs>
<clipPath id="clip0_4_34">
<rect width="600" height="434" fill="white"/>
</clipPath>
<clipPath id="clip1_4_34">
<rect width="600" height="434" fill="white"/>
</clipPath>
</defs>
</svg>
